:SAMPLES-PER-SECOND 30
:FULLY-SPECIFIED
:DEGREES
309
root  39.8837 31.9291 -39.3112 -164.052 71.1815 -173.093
RightUpLeg  -22.4509 -8.99444 -18.0157
RightLeg  27.7392 10.8707 4.80755
RightFoot  7.02454 -0.0706156 1.61544
RightToes  -59.8244 -0.392889 -0.404717
Spine  1.28493 -0.325763 -2.01605
Spine1  2.04415 -0.0615983 -4.03497
HEad  -45.4122 22.8575 -10.2977
LeftShoulder1  -1.94126e-019 -3.10601e-018 -2.51263e-017
LeftArm  -22.4983 -17.4607 -59.5759
LeftForeArm  77.792 -68.0388 -19.3074
LeftHand  -1.38765 -1.36204 23.7924
RightShoulder  -4.96962e-017 0 -2.36833e-017
RightArm  -60.4917 23.4727 32.7543
RightForeArm  158.886 75.5627 141.016
RightHand  -0.103713 -4.81001 -18.5998
LeftUpLeg  -28.745 -1.67936 21.7807
LeftLeg  31.3378 11.0818 5.74702
LeftFoot  13.3354 -0.349779 3.15296
LeftToes  -44.2958 1.9075e-006 4.29692e-008
310
root  40.1006 31.5833 -40.0924 -166.189 71.8065 -174.164
RightUpLeg  -23.6701 -10.0617 -19.1723
RightLeg  32.8495 8.33431 4.61379
RightFoot  7.46955 -0.0602793 1.4019
RightToes  -61.0834 -0.404798 -0.406458
Spine  1.55296 -0.520702 -2.45412
Spine1  2.52989 -0.550457 -4.77717
HEad  -45.5528 24.8836 -13.0028
LeftShoulder1  -1.94126e-019 -3.10601e-018 -2.51263e-017
LeftArm  -20.1068 -13.6136 -62.5965
LeftForeArm  94.4322 -77.4393 -37.6758
LeftHand  -0.97089 -0.126613 20.4271
RightShoulder  -4.96962e-017 0 -2.36833e-017
RightArm  -64.9952 27.9379 31.192
RightForeArm  158.948 75.0542 142.373
RightHand  -0.0676939 -5.05148 -19.7166
LeftUpLeg  -28.7364 3.27772 19.8017
LeftLeg  35.1333 6.70753 4.0808
LeftFoot  8.98289 -0.0994718 1.42781
LeftToes  -45.6198 1.9075e-006 4.29692e-008
311
root  40.2859 31.7992 -40.676 -169.611 68.2683 -177.404
RightUpLeg  -23.7523 -15.1965 -19.7375
RightLeg  36.8491 3.66622 2.37441
RightFoot  11.7878 -0.0587113 1.07792
RightToes  -62.1505 -0.414943 -0.406738
Spine  1.69919 -0.775114 -3.25665
Spine1  2.86763 -1.08895 -6.33276
HEad  -43.7441 23.8702 -12.8356
LeftShoulder1  -1.94126e-019 -3.10601e-018 -2.51263e-017
LeftArm  -16.2624 -11.7362 -67.6878
LeftForeArm  113.612 -80.6777 -56.1046
LeftHand  -1.13992 -1.31982 19.7734
RightShoulder  -4.96962e-017 0 -2.36833e-017
RightArm  -68.09 27.819 34.8146
RightForeArm  168.373 70.0837 153.139
RightHand  0.131911 -6.12506 -22.1017
LeftUpLeg  -30.4777 6.24378 17.2188
LeftLeg  36.4137 1.96654 1.25781
LeftFoot  9.21818 -0.0316788 0.554467
LeftToes  -44.0938 1.9075e-006 4.29692e-008
312
root  40.6043 32.231 -41.0787 -168.789 63.917 -175.468
RightUpLeg  -22.0271 -19.647 -18.4698
RightLeg  38.5984 -0.405991 -0.305159
RightFoot  17.8628 0.0708705 0.0861517
RightToes  -62.7759 -0.42091 -0.404731
Spine  1.87991 -0.00942244 -3.26154
Spine1  3.10711 0.526542 -6.44968
HEad  -39.8456 21.0932 -12.1379
LeftShoulder1  -1.94126e-019 -3.10601e-018 -2.51263e-017
LeftArm  -10.3574 -10.6232 -73.9938
LeftForeArm  114.578 -80.5506 -54.0466
LeftHand  -1.18214 -1.78939 19.1929
RightShoulder  -4.96962e-017 0 -2.36833e-017
RightArm  -68.6181 25.7221 40.7257
RightForeArm  173.6 63.9567 160.308
RightHand  0.470405 -7.60883 -24.6942
LeftUpLeg  -29.2011 6.03686 17.275
LeftLeg  33.4373 -0.940411 -0.542769
LeftFoot  10.1635 0.015611 -0.0140435
LeftToes  -44.1485 1.9075e-006 4.29692e-008
313
root  40.881 32.7339 -41.2425 -168.755 60.3462 -175.127
RightUpLeg  -21.5583 -21.5422 -17.4965
RightLeg  40.3746 -4.22632 -3.16706
RightFoot  23.0495 0.470988 -1.746
RightToes  -59.5038 -0.389868 -0.396919
Spine  1.64424 1.06187 -3.21934
Spine1  2.54289 2.76774 -6.38482
HEad  -35.6116 18.6057 -12.8087
LeftShoulder1  -1.94126e-019 -3.10601e-018 -2.51263e-017
LeftArm  -3.56228 -9.18099 -77.4884
LeftForeArm  110.311 -80.4019 -54.0613
LeftHand  -1.11055 -1.77076 18.1039
RightShoulder  -4.96962e-017 0 -2.36833e-017
RightArm  -63.6728 26.5721 48.805
RightForeArm  176.935 59.1312 164.034
RightHand  0.639184 -8.38682 -24.7431
LeftUpLeg  -28.0199 2.51717 17.6331
LeftLeg  29.6409 -0.795815 -0.391926
LeftFoot  13.0957 0.0171164 0.0123851
LeftToes  -44.8343 1.9075e-006 4.29692e-008
314
root  41.1157 33.2081 -41.2699 -169.738 57.1893 -176.317
RightUpLeg  -21.8519 -20.7368 -17.2201
RightLeg  42.8135 -6.36144 -5.17804
RightFoot  22.7684 0.675585 -2.77571
RightToes  -40.7472 -0.224479 -0.319304
Spine  1.39304 2.1609 -3.37818
Spine1  1.94976 5.11162 -6.68951
HEad  -33.0476 16.8974 -13.787
LeftShoulder1  -1.94126e-019 -3.10601e-018 -2.51263e-017
LeftArm  1.36747 -8.05628 -78.7399
LeftForeArm  107.08 -80.4812 -56.8475
LeftHand  -1.0227 -2.02247 16.1571
RightShoulder  -4.96962e-017 0 -2.36833e-017
RightArm  -52.3032 28.2209 58.6785
RightForeArm  179.386 58.1952 164.787
RightHand  0.478535 -7.89609 -22.4509
LeftUpLeg  -27.4117 1.1487 16.8381
LeftLeg  26.1178 -1.08772 -0.452982
LeftFoot  17.1453 0.0350258 -0.0708411
LeftToes  -45.5867 1.9075e-006 4.29692e-008
315
root  41.31 33.4668 -41.2354 -170.372 53.881 -177.089
RightUpLeg  -22.0575 -18.9507 -16.9142
RightLeg  45.1547 -4.23125 -3.76486
RightFoot  16.9122 0.263143 -1.20809
RightToes  -39.3093 -0.212989 -0.311188
Spine  1.30364 3.07659 -3.40262
Spine1  1.72639 7.0354 -6.67633
HEad  -32.1302 15.7509 -14.4336
LeftShoulder1  -1.94126e-019 -3.10601e-018 -2.51263e-017
LeftArm  3.65851 -7.01739 -78.6928
LeftForeArm  104.715 -80.6026 -60.6634
LeftHand  -0.920084 -2.14991 14.3336
RightShoulder  -4.96962e-017 0 -2.36833e-017
RightArm  -38.7536 29.2775 68.1323
RightForeArm  178.059 64.3722 160.396
RightHand  0.173845 -6.48668 -19.622
LeftUpLeg  -27.6822 4.88364 14.5063
LeftLeg  23.8724 -0.607709 -0.226998
LeftFoot  19.8263 0.0107121 0.100213
LeftToes  -43.1133 1.9075e-006 4.29692e-008
